<svg viewBox="0 0 20 20" fill="none" xmlns="http://www.w3.org/2000/svg">
<path fill-rule="evenodd" clip-rule="evenodd" d="M10 13.3334C9.81001 13.3334 9.62084 13.2692 9.46667 13.1401L4.46667 8.9734C4.11334 8.67923 4.06501 8.1534 4.36001 7.80007C4.65417 7.44673 5.17917 7.39923 5.53334 7.6934L10.0092 11.4234L14.4775 7.82757C14.8358 7.53923 15.3608 7.5959 15.6492 7.95423C15.9375 8.31257 15.8808 8.83673 15.5225 9.1259L10.5225 13.1492C10.37 13.2717 10.185 13.3334 10 13.3334Z" fill="currentColor"/>
<mask id="mask0_2784_795" style="mask-type:luminance" maskUnits="userSpaceOnUse" x="4" y="7" width="12" height="7">
<path fill-rule="evenodd" clip-rule="evenodd" d="M10 13.3334C9.81001 13.3334 9.62084 13.2692 9.46667 13.1401L4.46667 8.9734C4.11334 8.67923 4.06501 8.1534 4.36001 7.80007C4.65417 7.44673 5.17917 7.39923 5.53334 7.6934L10.0092 11.4234L14.4775 7.82757C14.8358 7.53923 15.3608 7.5959 15.6492 7.95423C15.9375 8.31257 15.8808 8.83673 15.5225 9.1259L10.5225 13.1492C10.37 13.2717 10.185 13.3334 10 13.3334Z" fill="currentColor"/>
</mask>
<g mask="url(#mask0_2784_795)">
<rect fill="currentColor"/>
</g>
</svg>
