<svg  viewBox="0 0 15 17" fill="none" xmlns="http://www.w3.org/2000/svg">
<path d="M13.2325 5.59902L13.3153 5.60014C13.6229 5.62557 13.8587 5.88096 13.875 6.18838L13.8671 6.35978L13.605 9.56915L13.3301 12.7011C13.2719 13.3264 13.2198 13.8537 13.1749 14.2689C13.0187 15.7156 12.0796 16.6103 10.6638 16.6368C8.45781 16.6775 6.33731 16.6771 4.2781 16.6326C2.90331 16.6037 1.97805 15.6994 1.82462 14.2747L1.71858 13.2251L1.53328 11.1892L1.34347 8.95506L1.12643 6.27323C1.09946 5.92915 1.34959 5.62779 1.68512 5.60013C1.99269 5.57478 2.26525 5.7882 2.32932 6.08898L2.35426 6.33478L2.55805 8.84893L2.78057 11.4549C2.88038 12.583 2.96695 13.496 3.03622 14.1373C3.12365 14.9492 3.55115 15.367 4.30343 15.3828C6.34654 15.427 8.45123 15.4274 10.6417 15.3869C11.4398 15.372 11.874 14.9583 11.9633 14.1311L12.0689 13.0871C12.0998 12.7654 12.1328 12.4102 12.1678 12.0244L12.3905 9.46149L12.6588 6.17292C12.6836 5.85752 12.9327 5.61575 13.2325 5.59902ZM0.609492 4.15765C0.272879 4.15765 0 3.87782 0 3.53263C0 3.2162 0.229294 2.9547 0.526787 2.91331L0.609492 2.90761H3.26476C3.5803 2.90761 3.85654 2.6994 3.95535 2.39941L3.97953 2.30678L4.18587 1.25444C4.36759 0.557472 4.95767 0.0612443 5.64916 0.00527624L5.77993 0H9.2199C9.92288 0 10.5436 0.455229 10.7826 1.15865L10.8228 1.29341L11.0203 2.30653C11.0822 2.62393 11.3354 2.861 11.6417 2.90148L11.7351 2.90761H14.3905C14.7271 2.90761 15 3.18744 15 3.53263C15 3.84905 14.7707 4.11056 14.4732 4.15195L14.3905 4.15765H0.609492ZM9.2199 1.25005H5.77993C5.60892 1.25005 5.45691 1.35269 5.39377 1.48169L5.37235 1.53837L5.17483 2.55199C5.15067 2.6757 5.11566 2.79484 5.07093 2.90843L9.929 2.90859C9.90109 2.83772 9.87695 2.76469 9.85687 2.68974L9.82496 2.55174L9.63635 1.57733C9.59227 1.40826 9.45612 1.28449 9.29185 1.25618L9.2199 1.25005Z" fill="currentColor"/>
</svg>
